<svg version="1.1" id="Layer_1" xmlns="http://www.w3.org/2000/svg" xmlns:xlink="http://www.w3.org/1999/xlink" x="0px" y="0px"
	 width="100%" viewBox="0 0 500 500" enable-background="new 0 0 500 500" xml:space="preserve">
<path fill="#000000" opacity="1.000000" stroke="none" 
	d="
M333.000000,501.000000 
	C222.000031,501.000000 111.500053,501.000000 1.000040,501.000000 
	C1.000000,417.666718 1.000000,334.333435 1.000000,251.000137 
	C1.000000,167.666824 1.000000,84.333511 1.000000,1.000149 
	C167.666565,1.000099 334.333130,1.000099 500.999756,1.000050 
	C500.999847,167.666519 500.999847,334.333038 500.999939,500.999786 
	C445.166656,501.000000 389.333344,501.000000 333.000000,501.000000 
M315.178986,379.674530 
	C315.759125,379.980927 316.366852,380.244720 316.915436,380.599884 
	C337.095367,393.666687 358.734375,397.062134 381.669159,389.669861 
	C394.440643,385.553406 406.950989,380.625061 419.569855,376.037506 
	C429.815948,372.312592 440.048431,368.550323 450.513031,364.721924 
	C444.806793,349.066925 439.271240,333.880157 433.677124,318.532745 
	C413.512268,325.862732 393.832611,332.853333 374.286255,340.198669 
	C366.029419,343.301575 358.735077,342.362885 351.640076,336.306488 
	C350.835999,335.071503 349.760376,333.935883 349.266968,332.587250 
	C329.355865,278.162354 309.478241,223.725113 289.741791,169.236771 
	C289.246521,167.869339 289.849609,165.440979 290.848236,164.306625 
	C296.092804,158.349319 297.214935,150.634277 293.474365,143.460861 
	C289.609344,136.048752 283.658203,132.916977 275.511871,133.952850 
	C274.383667,134.096298 273.227234,134.018097 271.947937,133.325745 
	C267.143860,121.690071 258.945984,113.507957 247.303421,108.629936 
	C223.417236,98.622055 185.671066,103.591599 173.046051,139.668518 
	C152.556137,198.219910 130.510712,256.226898 109.134903,314.468445 
	C105.319321,324.864532 101.566444,335.283600 97.611542,346.168396 
	C116.994461,346.168396 135.795319,346.237640 154.592697,346.013672 
	C155.856277,345.998627 157.721802,343.992157 158.244095,342.531647 
	C162.656662,330.192841 166.997345,317.821198 170.956848,305.331726 
	C172.188660,301.446167 173.983063,300.384796 177.974258,300.405365 
	C208.946823,300.565277 239.920792,300.453125 271.421021,301.008789 
	C276.950287,315.908691 282.990540,330.643860 287.863617,345.755341 
	C292.637085,360.557983 300.619598,372.199524 315.178986,379.674530 
z"/>
<path fill="#FEFEFE" opacity="1.000000" stroke="none" 
	d="
M270.894318,300.425171 
	C239.920792,300.453125 208.946823,300.565277 177.974258,300.405365 
	C173.983063,300.384796 172.188660,301.446167 170.956848,305.331726 
	C166.997345,317.821198 162.656662,330.192841 158.244095,342.531647 
	C157.721802,343.992157 155.856277,345.998627 154.592697,346.013672 
	C135.795319,346.237640 116.994461,346.168396 97.611542,346.168396 
	C101.566444,335.283600 105.319321,324.864532 109.134903,314.468445 
	C130.510712,256.226898 152.556137,198.219910 173.046051,139.668518 
	C185.671066,103.591599 223.417236,98.622055 247.303421,108.629936 
	C258.945984,113.507957 267.143860,121.690071 271.826294,133.985077 
	C270.861145,135.125427 270.065948,135.738373 269.166901,136.067764 
	C253.943787,141.645294 238.715393,147.208649 223.471741,152.729736 
	C214.353943,156.032104 210.348328,163.147461 212.344254,172.622925 
	C212.649048,174.069962 212.843216,175.540283 213.033295,177.378815 
	C204.493317,202.688904 196.008621,227.620010 187.411591,252.881165 
	C210.020782,252.881165 231.979980,252.881165 254.089294,253.223083 
	C256.830994,260.571625 259.499207,267.551117 261.994598,274.591827 
	C265.037079,283.176056 267.934296,291.811737 270.894318,300.425171 
z"/>
<path fill="#A1B1E1" opacity="1.000000" stroke="none" 
	d="
M213.088562,176.999832 
	C212.843216,175.540283 212.649048,174.069962 212.344254,172.622925 
	C210.348328,163.147461 214.353943,156.032104 223.471741,152.729736 
	C238.715393,147.208649 253.943787,141.645294 269.166901,136.067764 
	C270.065948,135.738373 270.861145,135.125427 271.894287,134.343475 
	C273.227234,134.018097 274.383667,134.096298 275.511871,133.952850 
	C283.658203,132.916977 289.609344,136.048752 293.474365,143.460861 
	C297.214935,150.634277 296.092804,158.349319 290.848236,164.306625 
	C289.849609,165.440979 289.246521,167.869339 289.741791,169.236771 
	C309.478241,223.725113 329.355865,278.162354 349.266968,332.587250 
	C349.760376,333.935883 350.835999,335.071503 351.472900,336.884338 
	C351.407959,339.082642 351.395691,340.719879 351.630096,342.321014 
	C354.130005,359.399689 342.943481,381.053772 320.470856,379.075317 
	C318.618103,378.912201 316.739319,379.044464 314.872650,379.039490 
	C300.619598,372.199524 292.637085,360.557983 287.863617,345.755341 
	C282.990540,330.643860 276.950287,315.908691 271.157654,300.716980 
	C267.934296,291.811737 265.037079,283.176056 261.994598,274.591827 
	C259.499207,267.551117 256.830994,260.571625 254.030884,252.868225 
	C246.385101,231.832840 238.963776,211.488358 231.477188,191.167892 
	C230.937653,189.703445 229.932770,187.234497 229.126373,187.227264 
	C221.535370,187.159195 217.341522,182.094070 213.088562,176.999832 
M290.845825,297.011566 
	C292.117981,296.671600 293.528229,295.810333 294.632812,296.102905 
	C296.765839,296.667908 298.726410,297.884125 300.758453,298.830353 
	C299.622192,300.632874 298.688416,302.619263 297.277771,304.172546 
	C296.353271,305.190491 294.738861,305.581879 292.739105,306.153870 
	C291.795959,306.400879 290.866425,306.753479 289.907379,306.877472 
	C284.518768,307.574097 284.188385,310.488495 286.032959,314.852997 
	C288.072357,319.678406 289.723114,324.668091 291.826996,330.353394 
	C294.889984,328.757935 297.709412,327.289337 301.280579,326.001068 
	C302.715515,325.692719 304.297333,324.850708 305.552277,325.196198 
	C307.640686,325.771088 309.519440,327.107544 311.486450,328.123322 
	C310.375671,329.897888 309.503235,331.907043 308.069611,333.363953 
	C307.126892,334.322021 305.374756,334.483582 303.309296,335.271576 
	C300.568542,336.337982 297.827759,337.404388 294.740723,338.605530 
	C296.428314,343.055908 297.444672,347.368591 299.594910,351.012115 
	C302.588257,356.084351 305.732086,361.440521 310.050201,365.283142 
	C320.044342,374.176788 336.258698,371.778992 341.387695,356.643311 
	C343.940918,349.108917 343.338135,341.891602 340.706787,334.696564 
	C320.431091,279.255493 300.117188,223.828354 279.757294,168.418152 
	C278.427490,164.799011 278.439697,161.633698 281.973175,158.856964 
	C285.830475,158.425323 287.201965,155.229691 286.644745,152.501923 
	C285.975830,149.227493 283.958038,145.997574 281.756805,143.398422 
	C281.032837,142.543564 277.918640,143.712997 275.113983,143.914734 
	C259.988678,149.299789 244.863373,154.684830 229.038239,160.195663 
	C221.460938,162.584030 219.720520,164.869553 220.987564,170.767883 
	C222.150589,176.181961 225.360626,177.970779 232.512421,177.316940 
	C233.276566,177.247086 234.089554,177.711624 235.570923,178.159180 
	C240.042221,189.483917 244.513519,200.808670 249.111267,212.453644 
	C253.275650,211.070618 257.028656,209.814575 260.788300,208.578613 
	C263.789368,207.592041 267.042542,206.910522 268.475098,210.578842 
	C270.010101,214.509384 266.727051,215.737808 263.873291,216.844147 
	C260.031219,218.333633 256.159241,219.745819 251.918228,221.334183 
	C254.561707,228.480087 257.056366,235.223694 259.846222,242.765305 
	C263.073608,240.862366 265.682587,239.324066 269.075684,237.963425 
	C270.344086,237.719437 271.706879,237.059784 272.860321,237.321854 
	C274.972656,237.801743 277.948120,238.269882 278.780823,239.747589 
	C280.191254,242.250397 278.858734,244.772385 275.781647,245.912140 
	C274.452972,246.404282 273.265411,247.277557 271.210693,247.882339 
	C268.463654,248.689178 265.716583,249.496017 262.479370,250.446838 
	C265.271210,257.851349 267.781097,264.508118 270.466614,271.630707 
	C273.898956,270.152069 276.568390,269.002106 279.965088,267.859100 
	C280.910645,267.592194 281.906036,267.436188 282.792725,267.038147 
	C285.803894,265.686340 288.577545,265.900787 289.785278,269.201508 
	C290.874054,272.177216 289.269135,274.212708 286.188507,275.160278 
	C284.989410,275.529083 283.955597,276.435242 282.082245,277.032013 
	C273.008026,279.209412 273.002441,279.211456 276.119812,287.767639 
	C276.738342,289.465363 277.458923,291.126251 278.062653,292.828888 
	C281.101166,301.398254 281.094452,301.404327 289.350616,297.657349 
	C289.626160,297.532288 289.810333,297.205872 290.845825,297.011566 
z"/>
<path fill="#FDFDFD" opacity="1.000000" stroke="none" 
	d="
M315.025818,379.356995 
	C316.739319,379.044464 318.618103,378.912201 320.470856,379.075317 
	C342.943481,381.053772 354.130005,359.399689 351.630096,342.321014 
	C351.395691,340.719879 351.407959,339.082642 351.604004,337.204651 
	C358.735077,342.362885 366.029419,343.301575 374.286255,340.198669 
	C393.832611,332.853333 413.512268,325.862732 433.677124,318.532745 
	C439.271240,333.880157 444.806793,349.066925 450.513031,364.721924 
	C440.048431,368.550323 429.815948,372.312592 419.569855,376.037506 
	C406.950989,380.625061 394.440643,385.553406 381.669159,389.669861 
	C358.734375,397.062134 337.095367,393.666687 316.915436,380.599884 
	C316.366852,380.244720 315.759125,379.980927 315.025818,379.356995 
z"/>
<path fill="#010102" opacity="1.000000" stroke="none" 
	d="
M213.033295,177.378815 
	C217.341522,182.094070 221.535370,187.159195 229.126373,187.227264 
	C229.932770,187.234497 230.937653,189.703445 231.477188,191.167892 
	C238.963776,211.488358 246.385101,231.832840 253.880768,252.526306 
	C231.979980,252.881165 210.020782,252.881165 187.411591,252.881165 
	C196.008621,227.620010 204.493317,202.688904 213.033295,177.378815 
z"/>
<path fill="#FDFDFE" opacity="1.000000" stroke="none" 
	d="
M268.291534,237.785782 
	C265.682587,239.324066 263.073608,240.862366 259.846222,242.765305 
	C257.056366,235.223694 254.561707,228.480087 251.918228,221.334183 
	C256.159241,219.745819 260.031219,218.333633 263.873291,216.844147 
	C266.727051,215.737808 270.010101,214.509384 268.475098,210.578842 
	C267.042542,206.910522 263.789368,207.592041 260.788300,208.578613 
	C257.028656,209.814575 253.275650,211.070618 249.111267,212.453644 
	C244.513519,200.808670 240.042221,189.483917 235.240601,177.661163 
	C233.186218,171.465393 231.462143,165.767639 229.738068,160.069885 
	C244.863373,154.684830 259.988678,149.299789 275.642761,144.290497 
	C277.868622,149.371750 279.565674,154.077255 281.262726,158.782761 
	C278.439697,161.633698 278.427490,164.799011 279.757294,168.418152 
	C300.117188,223.828354 320.431091,279.255493 340.706787,334.696564 
	C343.338135,341.891602 343.940918,349.108917 341.387695,356.643311 
	C336.258698,371.778992 320.044342,374.176788 310.050201,365.283142 
	C305.732086,361.440521 302.588257,356.084351 299.594910,351.012115 
	C297.444672,347.368591 296.428314,343.055908 294.740723,338.605530 
	C297.827759,337.404388 300.568542,336.337982 303.711975,335.500519 
	C306.127136,341.181122 307.991699,346.693207 310.188324,352.069641 
	C313.169128,359.365387 319.668671,362.221405 326.859039,359.667358 
	C333.353516,357.360443 336.522186,350.486420 334.155518,343.331268 
	C332.227173,337.501373 330.036499,331.757538 327.927704,325.988129 
	C313.962982,287.782806 300.021912,249.568695 285.917358,211.415024 
	C285.234802,209.568604 283.295319,207.461807 281.544525,207.008667 
	C280.502991,206.739105 278.200745,209.209778 277.305786,210.894867 
	C274.348022,216.463989 271.923584,222.315430 268.993073,227.900375 
	C267.255951,231.210983 266.548615,234.347000 268.291534,237.785782 
z"/>
<path fill="#2B52D8" opacity="1.000000" stroke="none" 
	d="
M268.683594,237.874603 
	C266.548615,234.347000 267.255951,231.210983 268.993073,227.900375 
	C271.923584,222.315430 274.348022,216.463989 277.305786,210.894867 
	C278.200745,209.209778 280.502991,206.739105 281.544525,207.008667 
	C283.295319,207.461807 285.234802,209.568604 285.917358,211.415024 
	C300.021912,249.568695 313.962982,287.782806 327.927704,325.988129 
	C330.036499,331.757538 332.227173,337.501373 334.155518,343.331268 
	C336.522186,350.486420 333.353516,357.360443 326.859039,359.667358 
	C319.668671,362.221405 313.169128,359.365387 310.188324,352.069641 
	C307.991699,346.693207 306.127136,341.181122 304.049866,335.365662 
	C305.374756,334.483582 307.126892,334.322021 308.069611,333.363953 
	C309.503235,331.907043 310.375671,329.897888 311.486450,328.123322 
	C309.519440,327.107544 307.640686,325.771088 305.552277,325.196198 
	C304.297333,324.850708 302.715515,325.692719 300.760071,325.550598 
	C297.970825,318.818054 295.702118,312.535980 293.433411,306.253876 
	C294.738861,305.581879 296.353271,305.190491 297.277771,304.172546 
	C298.688416,302.619263 299.622192,300.632874 300.758453,298.830353 
	C298.726410,297.884125 296.765839,296.667908 294.632812,296.102905 
	C293.528229,295.810333 292.117981,296.671600 290.345978,296.637329 
	C287.512909,289.874268 285.179688,283.485443 282.846466,277.096619 
	C283.955597,276.435242 284.989410,275.529083 286.188507,275.160278 
	C289.269135,274.212708 290.874054,272.177216 289.785278,269.201508 
	C288.577545,265.900787 285.803894,265.686340 282.792725,267.038147 
	C281.906036,267.436188 280.910645,267.592194 279.520996,267.489227 
	C276.722534,260.738800 274.368134,254.358246 272.013763,247.977692 
	C273.265411,247.277557 274.452972,246.404282 275.781647,245.912140 
	C278.858734,244.772385 280.191254,242.250397 278.780823,239.747589 
	C277.948120,238.269882 274.972656,237.801743 272.860321,237.321854 
	C271.706879,237.059784 270.344086,237.719437 268.683594,237.874603 
z"/>
<path fill="#FAFBFE" opacity="1.000000" stroke="none" 
	d="
M271.612244,247.930023 
	C274.368134,254.358246 276.722534,260.738800 279.157349,267.485748 
	C276.568390,269.002106 273.898956,270.152069 270.466614,271.630707 
	C267.781097,264.508118 265.271210,257.851349 262.479370,250.446838 
	C265.716583,249.496017 268.463654,248.689178 271.612244,247.930023 
z"/>
<path fill="#FAFBFE" opacity="1.000000" stroke="none" 
	d="
M293.086243,306.203857 
	C295.702118,312.535980 297.970825,318.818054 300.384155,325.460449 
	C297.709412,327.289337 294.889984,328.757935 291.826996,330.353394 
	C289.723114,324.668091 288.072357,319.678406 286.032959,314.852997 
	C284.188385,310.488495 284.518768,307.574097 289.907379,306.877472 
	C290.866425,306.753479 291.795959,306.400879 293.086243,306.203857 
z"/>
<path fill="#FBFCFE" opacity="1.000000" stroke="none" 
	d="
M282.464355,277.064331 
	C285.179688,283.485443 287.512909,289.874268 289.941620,296.618225 
	C289.810333,297.205872 289.626160,297.532288 289.350616,297.657349 
	C281.094452,301.404327 281.101166,301.398254 278.062653,292.828888 
	C277.458923,291.126251 276.738342,289.465363 276.119812,287.767639 
	C273.002441,279.211456 273.008026,279.209412 282.464355,277.064331 
z"/>
<path fill="#070708" opacity="1.000000" stroke="none" 
	d="
M229.388153,160.132782 
	C231.462143,165.767639 233.186218,171.465393 234.895081,177.545715 
	C234.089554,177.711624 233.276566,177.247086 232.512421,177.316940 
	C225.360626,177.970779 222.150589,176.181961 220.987564,170.767883 
	C219.720520,164.869553 221.460938,162.584030 229.388153,160.132782 
z"/>
<path fill="#0A0A0C" opacity="1.000000" stroke="none" 
	d="
M281.617950,158.819855 
	C279.565674,154.077255 277.868622,149.371750 276.034485,144.311508 
	C277.918640,143.712997 281.032837,142.543564 281.756805,143.398422 
	C283.958038,145.997574 285.975830,149.227493 286.644745,152.501923 
	C287.201965,155.229691 285.830475,158.425323 281.617950,158.819855 
z"/>
</svg>